<?xml version="1.0" encoding="UTF-8"?>
<svg xmlns="http://www.w3.org/2000/svg" width="167.024" height="156.37400000000002" viewBox="0 0 167.024 156.37400000000002">
  <style>
    .title { font-family: Arial, sans-serif; font-size: 12px; font-weight: bold; }
    .subtitle { font-family: Arial, sans-serif; font-size: 10px; fill: #666; }
  </style>
  
  <!-- Title -->
  <text x="83.512" y="15" class="title" text-anchor="middle">RT - 16 pips</text>
  
  <!-- Legacy (MegaMekLab) -->
  <g transform="translate(0, 25)">
    <text x="31.756" y="12" class="subtitle" text-anchor="middle">Legacy (MegaMekLab)</text>
    <rect x="0" y="18" width="63.512" height="116.37400000000001" fill="none" stroke="#ccc" stroke-dasharray="2,2"/>
    <circle cx="26.936999999999955" cy="20" r="2.415" fill="none" stroke="#000" stroke-width="0.5"/>
    <circle cx="37.988" cy="20" r="2.415" fill="none" stroke="#000" stroke-width="0.5"/>
    <circle cx="21.415999999999997" cy="29.542" r="2.415" fill="none" stroke="#000" stroke-width="0.5"/>
    <circle cx="32.46300000000002" cy="29.542" r="2.415" fill="none" stroke="#000" stroke-width="0.5"/>
    <circle cx="43.512" cy="29.542" r="2.415" fill="none" stroke="#000" stroke-width="0.5"/>
    <circle cx="26.936999999999955" cy="39.084999999999994" r="2.415" fill="none" stroke="#000" stroke-width="0.5"/>
    <circle cx="37.988" cy="39.084999999999994" r="2.415" fill="none" stroke="#000" stroke-width="0.5"/>
    <circle cx="21.415999999999997" cy="48.626999999999995" r="2.415" fill="none" stroke="#000" stroke-width="0.5"/>
    <circle cx="32.46300000000002" cy="48.626999999999995" r="2.415" fill="none" stroke="#000" stroke-width="0.5"/>
    <circle cx="43.512" cy="48.626999999999995" r="2.415" fill="none" stroke="#000" stroke-width="0.5"/>
    <circle cx="27.170999999999992" cy="58.169" r="2.415" fill="none" stroke="#000" stroke-width="0.5"/>
    <circle cx="24.776999999999987" cy="62.88199999999999" r="2.415" fill="none" stroke="#000" stroke-width="0.5"/>
    <circle cx="22.386000000000024" cy="72.42399999999999" r="2.415" fill="none" stroke="#000" stroke-width="0.5"/>
    <circle cx="20" cy="86.83200000000001" r="2.415" fill="none" stroke="#000" stroke-width="0.5"/>
    <circle cx="20" cy="96.37400000000001" r="2.415" fill="none" stroke="#000" stroke-width="0.5"/>
    <circle cx="33.59499999999997" cy="96.37400000000001" r="2.415" fill="none" stroke="#000" stroke-width="0.5"/>
  </g>
  
  <!-- Poisson -->
  <g transform="translate(83.512, 25)">
    <text x="31.756" y="12" class="subtitle" text-anchor="middle">Poisson Disk Sampling</text>
    <rect x="0" y="18" width="63.512" height="116.37400000000001" fill="none" stroke="#ccc" stroke-dasharray="2,2"/>
    <circle cx="117.20321605554375" cy="59.700630632052494" r="2.415" fill="none" stroke="#0066cc" stroke-width="0.5"/>
    <circle cx="108.22271980322034" cy="58.75946357860364" r="2.415" fill="none" stroke="#0066cc" stroke-width="0.5"/>
    <circle cx="116.80776614230751" cy="69.63927228210359" r="2.415" fill="none" stroke="#0066cc" stroke-width="0.5"/>
    <circle cx="104.4362344545886" cy="49.83556353297641" r="2.415" fill="none" stroke="#0066cc" stroke-width="0.5"/>
    <circle cx="122.72624600401821" cy="48.0773196875807" r="2.415" fill="none" stroke="#0066cc" stroke-width="0.5"/>
    <circle cx="126.49955945374222" cy="64.52800247888437" r="2.415" fill="none" stroke="#0066cc" stroke-width="0.5"/>
    <circle cx="112.20399716854695" cy="44.72688765315735" r="2.415" fill="none" stroke="#0066cc" stroke-width="0.5"/>
    <circle cx="105.80876155622605" cy="73.12068597980873" r="2.415" fill="none" stroke="#0066cc" stroke-width="0.5"/>
    <circle cx="121.06707341776996" cy="77.60451395063886" r="2.415" fill="none" stroke="#0066cc" stroke-width="0.5"/>
    <circle cx="112.95401750646079" cy="35.34503623194345" r="2.415" fill="none" stroke="#0066cc" stroke-width="0.5"/>
    <circle cx="126.77405116371028" cy="38.91022621416279" r="2.415" fill="none" stroke="#0066cc" stroke-width="0.5"/>
    <circle cx="104.62503931450044" cy="82.77200173803745" r="2.415" fill="none" stroke="#0066cc" stroke-width="0.5"/>
    <circle cx="103.79111439417397" cy="32.49370109026184" r="2.415" fill="none" stroke="#0066cc" stroke-width="0.5"/>
    <circle cx="113.34395470545246" cy="90.29290560364997" r="2.415" fill="none" stroke="#0066cc" stroke-width="0.5"/>
    <circle cx="123.5808716382885" cy="92.80358337790311" r="2.415" fill="none" stroke="#0066cc" stroke-width="0.5"/>
    <circle cx="104.80319241176733" cy="93.24114603579359" r="2.415" fill="none" stroke="#0066cc" stroke-width="0.5"/>
  </g>
</svg>