<?xml version="1.0" encoding="UTF-8"?>
<svg xmlns="http://www.w3.org/2000/svg" width="166.48399999999992" height="168.456" viewBox="0 0 166.48399999999992 168.456">
  <style>
    .title { font-family: Arial, sans-serif; font-size: 12px; font-weight: bold; }
    .subtitle { font-family: Arial, sans-serif; font-size: 10px; fill: #666; }
  </style>
  
  <!-- Title -->
  <text x="83.24199999999996" y="15" class="title" text-anchor="middle">LArm - 34 pips</text>
  
  <!-- Legacy (MegaMekLab) -->
  <g transform="translate(0, 25)">
    <text x="31.62099999999998" y="12" class="subtitle" text-anchor="middle">Legacy (MegaMekLab)</text>
    <rect x="0" y="18" width="63.24199999999996" height="128.456" fill="none" stroke="#ccc" stroke-dasharray="2,2"/>
    <circle cx="38.706999999999994" cy="20" r="2.415" fill="none" stroke="#000" stroke-width="0.5"/>
    <circle cx="32.690999999999974" cy="23.742000000000004" r="2.415" fill="none" stroke="#000" stroke-width="0.5"/>
    <circle cx="26.66999999999996" cy="27.483999999999995" r="2.415" fill="none" stroke="#000" stroke-width="0.5"/>
    <circle cx="37.96599999999995" cy="28.473" r="2.415" fill="none" stroke="#000" stroke-width="0.5"/>
    <circle cx="31.950999999999965" cy="32.212" r="2.415" fill="none" stroke="#000" stroke-width="0.5"/>
    <circle cx="43.24199999999996" cy="33.203" r="2.415" fill="none" stroke="#000" stroke-width="0.5"/>
    <circle cx="25.930999999999983" cy="35.955" r="2.415" fill="none" stroke="#000" stroke-width="0.5"/>
    <circle cx="37.226999999999975" cy="36.944" r="2.415" fill="none" stroke="#000" stroke-width="0.5"/>
    <circle cx="31.206999999999994" cy="40.687" r="2.415" fill="none" stroke="#000" stroke-width="0.5"/>
    <circle cx="42.49599999999998" cy="41.67399999999999" r="2.415" fill="none" stroke="#000" stroke-width="0.5"/>
    <circle cx="25.18599999999998" cy="44.42699999999999" r="2.415" fill="none" stroke="#000" stroke-width="0.5"/>
    <circle cx="36.480999999999995" cy="45.41499999999999" r="2.415" fill="none" stroke="#000" stroke-width="0.5"/>
    <circle cx="30.46199999999999" cy="49.157" r="2.415" fill="none" stroke="#000" stroke-width="0.5"/>
    <circle cx="24.444999999999993" cy="52.897999999999996" r="2.415" fill="none" stroke="#000" stroke-width="0.5"/>
    <circle cx="35.74199999999996" cy="53.887" r="2.415" fill="none" stroke="#000" stroke-width="0.5"/>
    <circle cx="29.72399999999999" cy="57.626999999999995" r="2.415" fill="none" stroke="#000" stroke-width="0.5"/>
    <circle cx="23.706999999999994" cy="61.370999999999995" r="2.415" fill="none" stroke="#000" stroke-width="0.5"/>
    <circle cx="35.00199999999995" cy="62.358000000000004" r="2.415" fill="none" stroke="#000" stroke-width="0.5"/>
    <circle cx="28.98199999999997" cy="66.102" r="2.415" fill="none" stroke="#000" stroke-width="0.5"/>
    <circle cx="22.964" cy="69.84200000000001" r="2.415" fill="none" stroke="#000" stroke-width="0.5"/>
    <circle cx="34.25899999999996" cy="70.83000000000001" r="2.415" fill="none" stroke="#000" stroke-width="0.5"/>
    <circle cx="28.241999999999962" cy="74.571" r="2.415" fill="none" stroke="#000" stroke-width="0.5"/>
    <circle cx="22.226" cy="78.31299999999999" r="2.415" fill="none" stroke="#000" stroke-width="0.5"/>
    <circle cx="33.52099999999996" cy="79.30099999999999" r="2.415" fill="none" stroke="#000" stroke-width="0.5"/>
    <circle cx="27.500999999999976" cy="83.041" r="2.415" fill="none" stroke="#000" stroke-width="0.5"/>
    <circle cx="21.47999999999996" cy="86.785" r="2.415" fill="none" stroke="#000" stroke-width="0.5"/>
    <circle cx="32.77499999999998" cy="87.77199999999999" r="2.415" fill="none" stroke="#000" stroke-width="0.5"/>
    <circle cx="26.75799999999998" cy="91.51400000000001" r="2.415" fill="none" stroke="#000" stroke-width="0.5"/>
    <circle cx="20.739999999999952" cy="95.255" r="2.415" fill="none" stroke="#000" stroke-width="0.5"/>
    <circle cx="32.03499999999997" cy="96.243" r="2.415" fill="none" stroke="#000" stroke-width="0.5"/>
    <circle cx="26.017999999999972" cy="99.98499999999999" r="2.415" fill="none" stroke="#000" stroke-width="0.5"/>
    <circle cx="20" cy="103.727" r="2.415" fill="none" stroke="#000" stroke-width="0.5"/>
    <circle cx="31.29499999999996" cy="104.714" r="2.415" fill="none" stroke="#000" stroke-width="0.5"/>
    <circle cx="25.276999999999987" cy="108.45599999999999" r="2.415" fill="none" stroke="#000" stroke-width="0.5"/>
  </g>
  
  <!-- Poisson -->
  <g transform="translate(83.24199999999996, 25)">
    <text x="31.62099999999998" y="12" class="subtitle" text-anchor="middle">Poisson Disk Sampling</text>
    <rect x="0" y="18" width="63.24199999999996" height="128.456" fill="none" stroke="#ccc" stroke-dasharray="2,2"/>
    <circle cx="116.77599300624985" cy="65.98107972855729" r="2.415" fill="none" stroke="#0066cc" stroke-width="0.5"/>
    <circle cx="106.82207378420122" cy="63.02101802857993" r="2.415" fill="none" stroke="#0066cc" stroke-width="0.5"/>
    <circle cx="121.90307656122042" cy="57.87428362021657" r="2.415" fill="none" stroke="#0066cc" stroke-width="0.5"/>
    <circle cx="113.10650454004934" cy="54.990167268248086" r="2.415" fill="none" stroke="#0066cc" stroke-width="0.5"/>
    <circle cx="107.4746356696275" cy="69.67350929621622" r="2.415" fill="none" stroke="#0066cc" stroke-width="0.5"/>
    <circle cx="123.42445258751678" cy="69.9134555283677" r="2.415" fill="none" stroke="#0066cc" stroke-width="0.5"/>
    <circle cx="118.03760069718271" cy="74.39608326964446" r="2.415" fill="none" stroke="#0066cc" stroke-width="0.5"/>
    <circle cx="126.4594321167396" cy="63.67044979712739" r="2.415" fill="none" stroke="#0066cc" stroke-width="0.5"/>
    <circle cx="105.56023986159454" cy="53.98303800643173" r="2.415" fill="none" stroke="#0066cc" stroke-width="0.5"/>
    <circle cx="116.86693721678182" cy="49.19258826944737" r="2.415" fill="none" stroke="#0066cc" stroke-width="0.5"/>
    <circle cx="104.76768314504898" cy="76.86648313625344" r="2.415" fill="none" stroke="#0066cc" stroke-width="0.5"/>
    <circle cx="126.47881167625843" cy="51.36737408869024" r="2.415" fill="none" stroke="#0066cc" stroke-width="0.5"/>
    <circle cx="112.66900424616756" cy="80.73116981208562" r="2.415" fill="none" stroke="#0066cc" stroke-width="0.5"/>
    <circle cx="110.34477861703152" cy="47.37869753482971" r="2.415" fill="none" stroke="#0066cc" stroke-width="0.5"/>
    <circle cx="124.71562645260042" cy="81.33578834371815" r="2.415" fill="none" stroke="#0066cc" stroke-width="0.5"/>
    <circle cx="103.52347296853361" cy="47.64617619620368" r="2.415" fill="none" stroke="#0066cc" stroke-width="0.5"/>
    <circle cx="120.58100246034041" cy="42.26125416081527" r="2.415" fill="none" stroke="#0066cc" stroke-width="0.5"/>
    <circle cx="118.85410173514396" cy="86.35929693570495" r="2.415" fill="none" stroke="#0066cc" stroke-width="0.5"/>
    <circle cx="111.43172761323228" cy="88.45438899017745" r="2.415" fill="none" stroke="#0066cc" stroke-width="0.5"/>
    <circle cx="113.97319106254378" cy="39.33007579813871" r="2.415" fill="none" stroke="#0066cc" stroke-width="0.5"/>
    <circle cx="106.8106801120012" cy="39.51464289399043" r="2.415" fill="none" stroke="#0066cc" stroke-width="0.5"/>
    <circle cx="104.49806377988216" cy="87.84285596524373" r="2.415" fill="none" stroke="#0066cc" stroke-width="0.5"/>
    <circle cx="126.25214816813741" cy="88.2345868154095" r="2.415" fill="none" stroke="#0066cc" stroke-width="0.5"/>
    <circle cx="121.72226868748601" cy="93.56776572342915" r="2.415" fill="none" stroke="#0066cc" stroke-width="0.5"/>
    <circle cx="117.70189468322445" cy="33.86924287849128" r="2.415" fill="none" stroke="#0066cc" stroke-width="0.5"/>
    <circle cx="114.81965816372377" cy="96.1686017326559" r="2.415" fill="none" stroke="#0066cc" stroke-width="0.5"/>
    <circle cx="126.01672941755828" cy="31.055545599188704" r="2.415" fill="none" stroke="#0066cc" stroke-width="0.5"/>
    <circle cx="103.99048720283116" cy="98.15533013792248" r="2.415" fill="none" stroke="#0066cc" stroke-width="0.5"/>
    <circle cx="106.04650289249548" cy="29.213395228021085" r="2.415" fill="none" stroke="#0066cc" stroke-width="0.5"/>
    <circle cx="126.47459062822549" cy="100.43704370875295" r="2.415" fill="none" stroke="#0066cc" stroke-width="0.5"/>
    <circle cx="118.52640971575545" cy="102.02231850973666" r="2.415" fill="none" stroke="#0066cc" stroke-width="0.5"/>
    <circle cx="111.33766632693244" cy="24.594681872698885" r="2.415" fill="none" stroke="#0066cc" stroke-width="0.5"/>
    <circle cx="119.96356113471825" cy="24.090220369231034" r="2.415" fill="none" stroke="#0066cc" stroke-width="0.5"/>
    <circle cx="122.96074926320489" cy="106.92923507908449" r="2.415" fill="none" stroke="#0066cc" stroke-width="0.5"/>
  </g>
</svg>