<?xml version="1.0" encoding="UTF-8"?>
<svg xmlns="http://www.w3.org/2000/svg" width="166.48399999999992" height="168.456" viewBox="0 0 166.48399999999992 168.456">
  <style>
    .title { font-family: Arial, sans-serif; font-size: 12px; font-weight: bold; }
    .subtitle { font-family: Arial, sans-serif; font-size: 10px; fill: #666; }
  </style>
  
  <!-- Title -->
  <text x="83.24199999999996" y="15" class="title" text-anchor="middle">RArm - 34 pips</text>
  
  <!-- Legacy (MegaMekLab) -->
  <g transform="translate(0, 25)">
    <text x="31.62099999999998" y="12" class="subtitle" text-anchor="middle">Legacy (MegaMekLab)</text>
    <rect x="0" y="18" width="63.24199999999996" height="128.456" fill="none" stroke="#ccc" stroke-dasharray="2,2"/>
    <circle cx="24.534999999999968" cy="20" r="2.415" fill="none" stroke="#000" stroke-width="0.5"/>
    <circle cx="30.55099999999993" cy="23.742000000000004" r="2.415" fill="none" stroke="#000" stroke-width="0.5"/>
    <circle cx="36.572" cy="27.483999999999995" r="2.415" fill="none" stroke="#000" stroke-width="0.5"/>
    <circle cx="25.275999999999954" cy="28.473" r="2.415" fill="none" stroke="#000" stroke-width="0.5"/>
    <circle cx="31.29099999999994" cy="32.212" r="2.415" fill="none" stroke="#000" stroke-width="0.5"/>
    <circle cx="20" cy="33.203" r="2.415" fill="none" stroke="#000" stroke-width="0.5"/>
    <circle cx="37.31099999999992" cy="35.955" r="2.415" fill="none" stroke="#000" stroke-width="0.5"/>
    <circle cx="26.014999999999986" cy="36.944" r="2.415" fill="none" stroke="#000" stroke-width="0.5"/>
    <circle cx="32.03499999999997" cy="40.687" r="2.415" fill="none" stroke="#000" stroke-width="0.5"/>
    <circle cx="20.74599999999998" cy="41.67399999999999" r="2.415" fill="none" stroke="#000" stroke-width="0.5"/>
    <circle cx="38.055999999999926" cy="44.42699999999999" r="2.415" fill="none" stroke="#000" stroke-width="0.5"/>
    <circle cx="26.760999999999967" cy="45.41499999999999" r="2.415" fill="none" stroke="#000" stroke-width="0.5"/>
    <circle cx="32.778999999999996" cy="49.157" r="2.415" fill="none" stroke="#000" stroke-width="0.5"/>
    <circle cx="38.79699999999991" cy="52.897999999999996" r="2.415" fill="none" stroke="#000" stroke-width="0.5"/>
    <circle cx="27.5" cy="53.887" r="2.415" fill="none" stroke="#000" stroke-width="0.5"/>
    <circle cx="33.517999999999915" cy="57.626999999999995" r="2.415" fill="none" stroke="#000" stroke-width="0.5"/>
    <circle cx="39.53499999999997" cy="61.370999999999995" r="2.415" fill="none" stroke="#000" stroke-width="0.5"/>
    <circle cx="28.24000000000001" cy="62.358000000000004" r="2.415" fill="none" stroke="#000" stroke-width="0.5"/>
    <circle cx="34.25999999999999" cy="66.102" r="2.415" fill="none" stroke="#000" stroke-width="0.5"/>
    <circle cx="40.27699999999993" cy="69.84200000000001" r="2.415" fill="none" stroke="#000" stroke-width="0.5"/>
    <circle cx="28.982999999999947" cy="70.83000000000001" r="2.415" fill="none" stroke="#000" stroke-width="0.5"/>
    <circle cx="35" cy="74.571" r="2.415" fill="none" stroke="#000" stroke-width="0.5"/>
    <circle cx="41.01599999999996" cy="78.31299999999999" r="2.415" fill="none" stroke="#000" stroke-width="0.5"/>
    <circle cx="29.721000000000004" cy="79.30099999999999" r="2.415" fill="none" stroke="#000" stroke-width="0.5"/>
    <circle cx="35.740999999999985" cy="83.041" r="2.415" fill="none" stroke="#000" stroke-width="0.5"/>
    <circle cx="41.761999999999944" cy="86.785" r="2.415" fill="none" stroke="#000" stroke-width="0.5"/>
    <circle cx="30.466999999999985" cy="87.77199999999999" r="2.415" fill="none" stroke="#000" stroke-width="0.5"/>
    <circle cx="36.483999999999924" cy="91.51400000000001" r="2.415" fill="none" stroke="#000" stroke-width="0.5"/>
    <circle cx="42.50199999999995" cy="95.255" r="2.415" fill="none" stroke="#000" stroke-width="0.5"/>
    <circle cx="31.206999999999994" cy="96.243" r="2.415" fill="none" stroke="#000" stroke-width="0.5"/>
    <circle cx="37.22399999999993" cy="99.98499999999999" r="2.415" fill="none" stroke="#000" stroke-width="0.5"/>
    <circle cx="43.24199999999996" cy="103.727" r="2.415" fill="none" stroke="#000" stroke-width="0.5"/>
    <circle cx="31.947000000000003" cy="104.714" r="2.415" fill="none" stroke="#000" stroke-width="0.5"/>
    <circle cx="37.96499999999992" cy="108.45599999999999" r="2.415" fill="none" stroke="#000" stroke-width="0.5"/>
  </g>
  
  <!-- Poisson -->
  <g transform="translate(83.24199999999996, 25)">
    <text x="31.62099999999998" y="12" class="subtitle" text-anchor="middle">Poisson Disk Sampling</text>
    <rect x="0" y="18" width="63.24199999999996" height="128.456" fill="none" stroke="#ccc" stroke-dasharray="2,2"/>
    <circle cx="116.77599300624979" cy="65.98107972855729" r="2.415" fill="none" stroke="#0066cc" stroke-width="0.5"/>
    <circle cx="106.82207378420117" cy="63.02101802857993" r="2.415" fill="none" stroke="#0066cc" stroke-width="0.5"/>
    <circle cx="121.90307656122036" cy="57.87428362021657" r="2.415" fill="none" stroke="#0066cc" stroke-width="0.5"/>
    <circle cx="113.10650454004929" cy="54.990167268248086" r="2.415" fill="none" stroke="#0066cc" stroke-width="0.5"/>
    <circle cx="107.47463566962745" cy="69.67350929621622" r="2.415" fill="none" stroke="#0066cc" stroke-width="0.5"/>
    <circle cx="123.42445258751673" cy="69.9134555283677" r="2.415" fill="none" stroke="#0066cc" stroke-width="0.5"/>
    <circle cx="118.0376006971826" cy="74.39608326964446" r="2.415" fill="none" stroke="#0066cc" stroke-width="0.5"/>
    <circle cx="126.45943211673955" cy="63.67044979712739" r="2.415" fill="none" stroke="#0066cc" stroke-width="0.5"/>
    <circle cx="105.56023986159448" cy="53.98303800643173" r="2.415" fill="none" stroke="#0066cc" stroke-width="0.5"/>
    <circle cx="116.86693721678171" cy="49.19258826944737" r="2.415" fill="none" stroke="#0066cc" stroke-width="0.5"/>
    <circle cx="104.76768314504886" cy="76.86648313625344" r="2.415" fill="none" stroke="#0066cc" stroke-width="0.5"/>
    <circle cx="126.47881167625837" cy="51.36737408869024" r="2.415" fill="none" stroke="#0066cc" stroke-width="0.5"/>
    <circle cx="112.66900424616745" cy="80.73116981208562" r="2.415" fill="none" stroke="#0066cc" stroke-width="0.5"/>
    <circle cx="110.34477861703135" cy="47.37869753482971" r="2.415" fill="none" stroke="#0066cc" stroke-width="0.5"/>
    <circle cx="124.7156264526003" cy="81.33578834371815" r="2.415" fill="none" stroke="#0066cc" stroke-width="0.5"/>
    <circle cx="103.5234729685335" cy="47.64617619620368" r="2.415" fill="none" stroke="#0066cc" stroke-width="0.5"/>
    <circle cx="120.5810024603403" cy="42.26125416081527" r="2.415" fill="none" stroke="#0066cc" stroke-width="0.5"/>
    <circle cx="118.85410173514379" cy="86.35929693570495" r="2.415" fill="none" stroke="#0066cc" stroke-width="0.5"/>
    <circle cx="111.43172761323217" cy="88.45438899017745" r="2.415" fill="none" stroke="#0066cc" stroke-width="0.5"/>
    <circle cx="113.9731910625436" cy="39.33007579813871" r="2.415" fill="none" stroke="#0066cc" stroke-width="0.5"/>
    <circle cx="106.81068011200102" cy="39.51464289399043" r="2.415" fill="none" stroke="#0066cc" stroke-width="0.5"/>
    <circle cx="104.49806377988205" cy="87.84285596524373" r="2.415" fill="none" stroke="#0066cc" stroke-width="0.5"/>
    <circle cx="126.25214816813718" cy="88.2345868154095" r="2.415" fill="none" stroke="#0066cc" stroke-width="0.5"/>
    <circle cx="121.72226868748578" cy="93.56776572342915" r="2.415" fill="none" stroke="#0066cc" stroke-width="0.5"/>
    <circle cx="117.7018946832244" cy="33.86924287849128" r="2.415" fill="none" stroke="#0066cc" stroke-width="0.5"/>
    <circle cx="114.8196581637236" cy="96.1686017326559" r="2.415" fill="none" stroke="#0066cc" stroke-width="0.5"/>
    <circle cx="126.01672941755817" cy="31.055545599188704" r="2.415" fill="none" stroke="#0066cc" stroke-width="0.5"/>
    <circle cx="103.9904872028311" cy="98.15533013792248" r="2.415" fill="none" stroke="#0066cc" stroke-width="0.5"/>
    <circle cx="106.04650289249525" cy="29.213395228021085" r="2.415" fill="none" stroke="#0066cc" stroke-width="0.5"/>
    <circle cx="126.47459062822543" cy="100.43704370875295" r="2.415" fill="none" stroke="#0066cc" stroke-width="0.5"/>
    <circle cx="118.52640971575534" cy="102.02231850973666" r="2.415" fill="none" stroke="#0066cc" stroke-width="0.5"/>
    <circle cx="111.33766632693244" cy="24.594681872698885" r="2.415" fill="none" stroke="#0066cc" stroke-width="0.5"/>
    <circle cx="119.96356113471813" cy="24.090220369231034" r="2.415" fill="none" stroke="#0066cc" stroke-width="0.5"/>
    <circle cx="122.96074926320478" cy="106.92923507908449" r="2.415" fill="none" stroke="#0066cc" stroke-width="0.5"/>
  </g>
</svg>