<?xml version="1.0" encoding="UTF-8"?>
<svg xmlns="http://www.w3.org/2000/svg" width="158.904" height="174.172" viewBox="0 0 158.904 174.172">
  <style>
    .title { font-family: Arial, sans-serif; font-size: 12px; font-weight: bold; }
    .subtitle { font-family: Arial, sans-serif; font-size: 10px; fill: #666; }
  </style>
  
  <!-- Title -->
  <text x="79.452" y="15" class="title" text-anchor="middle">RArm - 17 pips</text>
  
  <!-- Legacy (MegaMekLab) -->
  <g transform="translate(0, 25)">
    <text x="29.726" y="12" class="subtitle" text-anchor="middle">Legacy (MegaMekLab)</text>
    <rect x="0" y="18" width="59.452" height="134.172" fill="none" stroke="#ccc" stroke-dasharray="2,2"/>
    <circle cx="31.298000000000002" cy="20" r="2.415" fill="none" stroke="#000" stroke-width="0.5"/>
    <circle cx="20" cy="20.985" r="2.415" fill="none" stroke="#000" stroke-width="0.5"/>
    <circle cx="26.468000000000075" cy="29.810000000000002" r="2.415" fill="none" stroke="#000" stroke-width="0.5"/>
    <circle cx="32.92900000000009" cy="38.635000000000005" r="2.415" fill="none" stroke="#000" stroke-width="0.5"/>
    <circle cx="21.631000000000085" cy="39.622" r="2.415" fill="none" stroke="#000" stroke-width="0.5"/>
    <circle cx="28.095000000000027" cy="48.45" r="2.415" fill="none" stroke="#000" stroke-width="0.5"/>
    <circle cx="34.55799999999999" cy="57.271" r="2.415" fill="none" stroke="#000" stroke-width="0.5"/>
    <circle cx="23.25999999999999" cy="58.260999999999996" r="2.415" fill="none" stroke="#000" stroke-width="0.5"/>
    <circle cx="29.725000000000023" cy="67.086" r="2.415" fill="none" stroke="#000" stroke-width="0.5"/>
    <circle cx="36.18700000000001" cy="75.911" r="2.415" fill="none" stroke="#000" stroke-width="0.5"/>
    <circle cx="24.894000000000005" cy="76.9" r="2.415" fill="none" stroke="#000" stroke-width="0.5"/>
    <circle cx="31.355999999999995" cy="85.725" r="2.415" fill="none" stroke="#000" stroke-width="0.5"/>
    <circle cx="37.8180000000001" cy="94.548" r="2.415" fill="none" stroke="#000" stroke-width="0.5"/>
    <circle cx="26.523000000000025" cy="95.537" r="2.415" fill="none" stroke="#000" stroke-width="0.5"/>
    <circle cx="32.988000000000056" cy="104.362" r="2.415" fill="none" stroke="#000" stroke-width="0.5"/>
    <circle cx="39.452" cy="113.184" r="2.415" fill="none" stroke="#000" stroke-width="0.5"/>
    <circle cx="28.15700000000004" cy="114.172" r="2.415" fill="none" stroke="#000" stroke-width="0.5"/>
  </g>
  
  <!-- Poisson -->
  <g transform="translate(79.452, 25)">
    <text x="29.726" y="12" class="subtitle" text-anchor="middle">Poisson Disk Sampling</text>
    <rect x="0" y="18" width="59.452" height="134.172" fill="none" stroke="#ccc" stroke-dasharray="2,2"/>
    <circle cx="110.77904724023631" cy="68.95236321106199" r="2.415" fill="none" stroke="#0066cc" stroke-width="0.5"/>
    <circle cx="110.39156438818327" cy="78.69077276229541" r="2.415" fill="none" stroke="#0066cc" stroke-width="0.5"/>
    <circle cx="101.97947949669128" cy="68.0301576878791" r="2.415" fill="none" stroke="#0066cc" stroke-width="0.5"/>
    <circle cx="118.77552067273086" cy="74.43437572776179" r="2.415" fill="none" stroke="#0066cc" stroke-width="0.5"/>
    <circle cx="116.1908056571117" cy="57.563225107061825" r="2.415" fill="none" stroke="#0066cc" stroke-width="0.5"/>
    <circle cx="99.61415485006944" cy="82.10204701880835" r="2.415" fill="none" stroke="#0066cc" stroke-width="0.5"/>
    <circle cx="114.5650601347362" cy="86.4955400810112" r="2.415" fill="none" stroke="#0066cc" stroke-width="0.5"/>
    <circle cx="105.8805467537452" cy="54.28029364885606" r="2.415" fill="none" stroke="#0066cc" stroke-width="0.5"/>
    <circle cx="100.48527755359328" cy="90.98263950766724" r="2.415" fill="none" stroke="#0066cc" stroke-width="0.5"/>
    <circle cx="118.50550939026766" cy="48.342363220595956" r="2.415" fill="none" stroke="#0066cc" stroke-width="0.5"/>
    <circle cx="109.9289834773549" cy="46.25331734737689" r="2.415" fill="none" stroke="#0066cc" stroke-width="0.5"/>
    <circle cx="106.99753776280772" cy="98.92830089625184" r="2.415" fill="none" stroke="#0066cc" stroke-width="0.5"/>
    <circle cx="118.66501157857942" cy="98.90991485691927" r="2.415" fill="none" stroke="#0066cc" stroke-width="0.5"/>
    <circle cx="105.90641705763232" cy="37.85658148891062" r="2.415" fill="none" stroke="#0066cc" stroke-width="0.5"/>
    <circle cx="116.46068111358818" cy="36.470856397459116" r="2.415" fill="none" stroke="#0066cc" stroke-width="0.5"/>
    <circle cx="111.94578176144057" cy="106.74258747718278" r="2.415" fill="none" stroke="#0066cc" stroke-width="0.5"/>
    <circle cx="101.52362042097138" cy="107.91842009090738" r="2.415" fill="none" stroke="#0066cc" stroke-width="0.5"/>
  </g>
</svg>