<?xml version="1.0" encoding="UTF-8"?>
<svg xmlns="http://www.w3.org/2000/svg" width="191.94600000000003" height="191.783" viewBox="0 0 191.94600000000003 191.783">
  <style>
    .title { font-family: Arial, sans-serif; font-size: 12px; font-weight: bold; }
    .subtitle { font-family: Arial, sans-serif; font-size: 10px; fill: #666; }
  </style>
  
  <!-- Title -->
  <text x="95.97300000000001" y="15" class="title" text-anchor="middle">LLeg - 42 pips</text>
  
  <!-- Legacy (MegaMekLab) -->
  <g transform="translate(0, 25)">
    <text x="37.98650000000001" y="12" class="subtitle" text-anchor="middle">Legacy (MegaMekLab)</text>
    <rect x="0" y="18" width="75.97300000000001" height="151.783" fill="none" stroke="#ccc" stroke-dasharray="2,2"/>
    <circle cx="51.28499999999997" cy="20" r="2.415" fill="none" stroke="#000" stroke-width="0.5"/>
    <circle cx="44.56099999999998" cy="22.758999999999986" r="2.415" fill="none" stroke="#000" stroke-width="0.5"/>
    <circle cx="55.97300000000001" cy="25.39500000000001" r="2.415" fill="none" stroke="#000" stroke-width="0.5"/>
    <circle cx="49.396000000000015" cy="28.182999999999993" r="2.415" fill="none" stroke="#000" stroke-width="0.5"/>
    <circle cx="42.67099999999999" cy="30.943000000000012" r="2.415" fill="none" stroke="#000" stroke-width="0.5"/>
    <circle cx="54.081999999999994" cy="33.578" r="2.415" fill="none" stroke="#000" stroke-width="0.5"/>
    <circle cx="47.50399999999996" cy="36.36699999999999" r="2.415" fill="none" stroke="#000" stroke-width="0.5"/>
    <circle cx="40.783000000000015" cy="39.128000000000014" r="2.415" fill="none" stroke="#000" stroke-width="0.5"/>
    <circle cx="52.19499999999999" cy="41.762" r="2.415" fill="none" stroke="#000" stroke-width="0.5"/>
    <circle cx="45.61099999999999" cy="44.55199999999999" r="2.415" fill="none" stroke="#000" stroke-width="0.5"/>
    <circle cx="38.89799999999997" cy="47.31200000000001" r="2.415" fill="none" stroke="#000" stroke-width="0.5"/>
    <circle cx="50.30899999999997" cy="49.946" r="2.415" fill="none" stroke="#000" stroke-width="0.5"/>
    <circle cx="43.726999999999975" cy="52.736999999999995" r="2.415" fill="none" stroke="#000" stroke-width="0.5"/>
    <circle cx="37.00799999999998" cy="55.497000000000014" r="2.415" fill="none" stroke="#000" stroke-width="0.5"/>
    <circle cx="48.420000000000016" cy="58.131" r="2.415" fill="none" stroke="#000" stroke-width="0.5"/>
    <circle cx="41.839999999999975" cy="60.923" r="2.415" fill="none" stroke="#000" stroke-width="0.5"/>
    <circle cx="35.11500000000001" cy="63.678" r="2.415" fill="none" stroke="#000" stroke-width="0.5"/>
    <circle cx="46.52699999999999" cy="66.31299999999999" r="2.415" fill="none" stroke="#000" stroke-width="0.5"/>
    <circle cx="39.94900000000001" cy="69.106" r="2.415" fill="none" stroke="#000" stroke-width="0.5"/>
    <circle cx="33.23000000000002" cy="71.864" r="2.415" fill="none" stroke="#000" stroke-width="0.5"/>
    <circle cx="44.644000000000005" cy="74.499" r="2.415" fill="none" stroke="#000" stroke-width="0.5"/>
    <circle cx="38.06099999999998" cy="77.28999999999999" r="2.415" fill="none" stroke="#000" stroke-width="0.5"/>
    <circle cx="31.334000000000003" cy="80.04599999999999" r="2.415" fill="none" stroke="#000" stroke-width="0.5"/>
    <circle cx="42.74599999999998" cy="82.68" r="2.415" fill="none" stroke="#000" stroke-width="0.5"/>
    <circle cx="36.164999999999964" cy="85.47" r="2.415" fill="none" stroke="#000" stroke-width="0.5"/>
    <circle cx="29.444999999999993" cy="88.22999999999999" r="2.415" fill="none" stroke="#000" stroke-width="0.5"/>
    <circle cx="40.85500000000002" cy="90.864" r="2.415" fill="none" stroke="#000" stroke-width="0.5"/>
    <circle cx="34.278999999999996" cy="93.655" r="2.415" fill="none" stroke="#000" stroke-width="0.5"/>
    <circle cx="27.555999999999983" cy="96.41400000000002" r="2.415" fill="none" stroke="#000" stroke-width="0.5"/>
    <circle cx="38.968999999999994" cy="99.04799999999997" r="2.415" fill="none" stroke="#000" stroke-width="0.5"/>
    <circle cx="32.38900000000001" cy="101.83900000000003" r="2.415" fill="none" stroke="#000" stroke-width="0.5"/>
    <circle cx="25.663999999999987" cy="104.59599999999998" r="2.415" fill="none" stroke="#000" stroke-width="0.5"/>
    <circle cx="37.07400000000001" cy="107.22999999999999" r="2.415" fill="none" stroke="#000" stroke-width="0.5"/>
    <circle cx="30.5" cy="110.02399999999997" r="2.415" fill="none" stroke="#000" stroke-width="0.5"/>
    <circle cx="23.781000000000006" cy="112.78400000000002" r="2.415" fill="none" stroke="#000" stroke-width="0.5"/>
    <circle cx="35.19200000000001" cy="115.41799999999998" r="2.415" fill="none" stroke="#000" stroke-width="0.5"/>
    <circle cx="28.60899999999998" cy="118.20700000000002" r="2.415" fill="none" stroke="#000" stroke-width="0.5"/>
    <circle cx="21.887" cy="120.96400000000003" r="2.415" fill="none" stroke="#000" stroke-width="0.5"/>
    <circle cx="33.30000000000001" cy="123.59799999999998" r="2.415" fill="none" stroke="#000" stroke-width="0.5"/>
    <circle cx="26.721000000000004" cy="126.39000000000001" r="2.415" fill="none" stroke="#000" stroke-width="0.5"/>
    <circle cx="20" cy="129.148" r="2.415" fill="none" stroke="#000" stroke-width="0.5"/>
    <circle cx="31.411" cy="131.783" r="2.415" fill="none" stroke="#000" stroke-width="0.5"/>
  </g>
  
  <!-- Poisson -->
  <g transform="translate(95.97300000000001, 25)">
    <text x="37.98650000000001" y="12" class="subtitle" text-anchor="middle">Poisson Disk Sampling</text>
    <rect x="0" y="18" width="75.97300000000001" height="151.783" fill="none" stroke="#ccc" stroke-dasharray="2,2"/>
    <circle cx="136.92035093424954" cy="78.10688969993353" r="2.415" fill="none" stroke="#0066cc" stroke-width="0.5"/>
    <circle cx="132.30296524186548" cy="64.27681981201147" r="2.415" fill="none" stroke="#0066cc" stroke-width="0.5"/>
    <circle cx="122.80735982487437" cy="63.00953030102761" r="2.415" fill="none" stroke="#0066cc" stroke-width="0.5"/>
    <circle cx="138.50785539302404" cy="88.69564541067396" r="2.415" fill="none" stroke="#0066cc" stroke-width="0.5"/>
    <circle cx="131.7524504723027" cy="96.66720281724903" r="2.415" fill="none" stroke="#0066cc" stroke-width="0.5"/>
    <circle cx="149.33634550343095" cy="69.02146031102922" r="2.415" fill="none" stroke="#0066cc" stroke-width="0.5"/>
    <circle cx="150.98544881473515" cy="52.77707754713498" r="2.415" fill="none" stroke="#0066cc" stroke-width="0.5"/>
    <circle cx="144.15428241587114" cy="61.93050830749772" r="2.415" fill="none" stroke="#0066cc" stroke-width="0.5"/>
    <circle cx="121.11777712081766" cy="75.50969098252867" r="2.415" fill="none" stroke="#0066cc" stroke-width="0.5"/>
    <circle cx="122.57779014711957" cy="85.08607488143056" r="2.415" fill="none" stroke="#0066cc" stroke-width="0.5"/>
    <circle cx="138.4141397045484" cy="55.45927447035265" r="2.415" fill="none" stroke="#0066cc" stroke-width="0.5"/>
    <circle cx="145.87661335812538" cy="83.69744319379231" r="2.415" fill="none" stroke="#0066cc" stroke-width="0.5"/>
    <circle cx="147.03665749602055" cy="93.77305790703278" r="2.415" fill="none" stroke="#0066cc" stroke-width="0.5"/>
    <circle cx="116.00671048528807" cy="55.35404591643413" r="2.415" fill="none" stroke="#0066cc" stroke-width="0.5"/>
    <circle cx="139.91241591992093" cy="41.88855807825436" r="2.415" fill="none" stroke="#0066cc" stroke-width="0.5"/>
    <circle cx="135.88247981421182" cy="104.18991407682401" r="2.415" fill="none" stroke="#0066cc" stroke-width="0.5"/>
    <circle cx="144.49425635055456" cy="102.83409195056319" r="2.415" fill="none" stroke="#0066cc" stroke-width="0.5"/>
    <circle cx="122.40633244829746" cy="105.54265317249715" r="2.415" fill="none" stroke="#0066cc" stroke-width="0.5"/>
    <circle cx="123.19914523093763" cy="45.76389526690727" r="2.415" fill="none" stroke="#0066cc" stroke-width="0.5"/>
    <circle cx="140.08103109110294" cy="115.21695213704234" r="2.415" fill="none" stroke="#0066cc" stroke-width="0.5"/>
    <circle cx="148.50743549408656" cy="39.668396121456595" r="2.415" fill="none" stroke="#0066cc" stroke-width="0.5"/>
    <circle cx="149.15853087797808" cy="110.19993281441182" r="2.415" fill="none" stroke="#0066cc" stroke-width="0.5"/>
    <circle cx="139.23408387205916" cy="69.72442996961863" r="2.415" fill="none" stroke="#0066cc" stroke-width="0.5"/>
    <circle cx="128.84858268192272" cy="119.20595148569672" r="2.415" fill="none" stroke="#0066cc" stroke-width="0.5"/>
    <circle cx="146.1569549944271" cy="121.72254647070545" r="2.415" fill="none" stroke="#0066cc" stroke-width="0.5"/>
    <circle cx="119.46062946618662" cy="94.88866433227892" r="2.415" fill="none" stroke="#0066cc" stroke-width="0.5"/>
    <circle cx="133.67243963638685" cy="129.80272935021853" r="2.415" fill="none" stroke="#0066cc" stroke-width="0.5"/>
    <circle cx="133.69436619105505" cy="36.279266751356005" r="2.415" fill="none" stroke="#0066cc" stroke-width="0.5"/>
    <circle cx="125.82400429035994" cy="54.32259902302664" r="2.415" fill="none" stroke="#0066cc" stroke-width="0.5"/>
    <circle cx="119.31317447197898" cy="123.14910360856683" r="2.415" fill="none" stroke="#0066cc" stroke-width="0.5"/>
    <circle cx="141.19787000368206" cy="31.31477286744277" r="2.415" fill="none" stroke="#0066cc" stroke-width="0.5"/>
    <circle cx="123.8060332393058" cy="130.29635010540474" r="2.415" fill="none" stroke="#0066cc" stroke-width="0.5"/>
    <circle cx="132.56745535015784" cy="47.405875141865465" r="2.415" fill="none" stroke="#0066cc" stroke-width="0.5"/>
    <circle cx="147.2971964187525" cy="131.2824917156302" r="2.415" fill="none" stroke="#0066cc" stroke-width="0.5"/>
    <circle cx="148.54143537834443" cy="20.343360168648474" r="2.415" fill="none" stroke="#0066cc" stroke-width="0.5"/>
    <circle cx="123.97242881633724" cy="34.664759505962905" r="2.415" fill="none" stroke="#0066cc" stroke-width="0.5"/>
    <circle cx="151.42554084243682" cy="30.49322122815343" r="2.415" fill="none" stroke="#0066cc" stroke-width="0.5"/>
    <circle cx="125.19078539909623" cy="24.930116290357034" r="2.415" fill="none" stroke="#0066cc" stroke-width="0.5"/>
    <circle cx="129.51078756999965" cy="74.21644500710542" r="2.415" fill="none" stroke="#0066cc" stroke-width="0.5"/>
    <circle cx="116.42054872689096" cy="115.26310348415618" r="2.415" fill="none" stroke="#0066cc" stroke-width="0.5"/>
    <circle cx="135.01592384056016" cy="20.49544747816057" r="2.415" fill="none" stroke="#0066cc" stroke-width="0.5"/>
    <circle cx="117.12704888040747" cy="22.28666760576553" r="2.415" fill="none" stroke="#0066cc" stroke-width="0.5"/>
  </g>
</svg>