<?xml version="1.0" encoding="UTF-8"?>
<svg xmlns="http://www.w3.org/2000/svg" width="163.15200000000004" height="141.724" viewBox="0 0 163.15200000000004 141.724">
  <style>
    .title { font-family: Arial, sans-serif; font-size: 12px; font-weight: bold; }
    .subtitle { font-family: Arial, sans-serif; font-size: 10px; fill: #666; }
  </style>
  
  <!-- Title -->
  <text x="81.57600000000002" y="15" class="title" text-anchor="middle">CT - 25 pips</text>
  
  <!-- Legacy (MegaMekLab) -->
  <g transform="translate(0, 25)">
    <text x="30.78800000000001" y="12" class="subtitle" text-anchor="middle">Legacy (MegaMekLab)</text>
    <rect x="0" y="18" width="61.57600000000002" height="101.724" fill="none" stroke="#ccc" stroke-dasharray="2,2"/>
    <circle cx="25.391999999999996" cy="20" r="2.415" fill="none" stroke="#000" stroke-width="0.5"/>
    <circle cx="36.17900000000003" cy="20" r="2.415" fill="none" stroke="#000" stroke-width="0.5"/>
    <circle cx="20" cy="27.715000000000003" r="2.415" fill="none" stroke="#000" stroke-width="0.5"/>
    <circle cx="30.78800000000001" cy="27.715000000000003" r="2.415" fill="none" stroke="#000" stroke-width="0.5"/>
    <circle cx="41.572" cy="27.715000000000003" r="2.415" fill="none" stroke="#000" stroke-width="0.5"/>
    <circle cx="20" cy="35.431" r="2.415" fill="none" stroke="#000" stroke-width="0.5"/>
    <circle cx="30.78800000000001" cy="35.431" r="2.415" fill="none" stroke="#000" stroke-width="0.5"/>
    <circle cx="41.572" cy="35.431" r="2.415" fill="none" stroke="#000" stroke-width="0.5"/>
    <circle cx="20" cy="43.147000000000006" r="2.415" fill="none" stroke="#000" stroke-width="0.5"/>
    <circle cx="30.78800000000001" cy="43.147000000000006" r="2.415" fill="none" stroke="#000" stroke-width="0.5"/>
    <circle cx="41.572" cy="43.147000000000006" r="2.415" fill="none" stroke="#000" stroke-width="0.5"/>
    <circle cx="20" cy="50.86200000000001" r="2.415" fill="none" stroke="#000" stroke-width="0.5"/>
    <circle cx="30.78800000000001" cy="50.86200000000001" r="2.415" fill="none" stroke="#000" stroke-width="0.5"/>
    <circle cx="41.572" cy="50.86200000000001" r="2.415" fill="none" stroke="#000" stroke-width="0.5"/>
    <circle cx="20" cy="58.576999999999984" r="2.415" fill="none" stroke="#000" stroke-width="0.5"/>
    <circle cx="30.78800000000001" cy="58.576999999999984" r="2.415" fill="none" stroke="#000" stroke-width="0.5"/>
    <circle cx="41.572" cy="58.576999999999984" r="2.415" fill="none" stroke="#000" stroke-width="0.5"/>
    <circle cx="20.001000000000033" cy="66.29299999999999" r="2.415" fill="none" stroke="#000" stroke-width="0.5"/>
    <circle cx="30.788999999999987" cy="66.29299999999999" r="2.415" fill="none" stroke="#000" stroke-width="0.5"/>
    <circle cx="41.57600000000002" cy="66.29299999999999" r="2.415" fill="none" stroke="#000" stroke-width="0.5"/>
    <circle cx="20.001000000000033" cy="74.008" r="2.415" fill="none" stroke="#000" stroke-width="0.5"/>
    <circle cx="30.788999999999987" cy="74.008" r="2.415" fill="none" stroke="#000" stroke-width="0.5"/>
    <circle cx="41.57600000000002" cy="74.008" r="2.415" fill="none" stroke="#000" stroke-width="0.5"/>
    <circle cx="25.391999999999996" cy="81.724" r="2.415" fill="none" stroke="#000" stroke-width="0.5"/>
    <circle cx="36.17900000000003" cy="81.724" r="2.415" fill="none" stroke="#000" stroke-width="0.5"/>
  </g>
  
  <!-- Poisson -->
  <g transform="translate(81.57600000000002, 25)">
    <text x="30.78800000000001" y="12" class="subtitle" text-anchor="middle">Poisson Disk Sampling</text>
    <rect x="0" y="18" width="61.57600000000002" height="101.724" fill="none" stroke="#ccc" stroke-dasharray="2,2"/>
    <circle cx="114.1398685613479" cy="52.0852872068087" r="2.415" fill="none" stroke="#0066cc" stroke-width="0.5"/>
    <circle cx="110.69567871196455" cy="41.76919288468814" r="2.415" fill="none" stroke="#0066cc" stroke-width="0.5"/>
    <circle cx="103.6127382842472" cy="40.82389917072355" r="2.415" fill="none" stroke="#0066cc" stroke-width="0.5"/>
    <circle cx="115.32401628194668" cy="59.98362781904861" r="2.415" fill="none" stroke="#0066cc" stroke-width="0.5"/>
    <circle cx="110.28503998529482" cy="65.92975381601438" r="2.415" fill="none" stroke="#0066cc" stroke-width="0.5"/>
    <circle cx="118.95216032888521" cy="44.47623076078092" r="2.415" fill="none" stroke="#0066cc" stroke-width="0.5"/>
    <circle cx="114.22522899500495" cy="36.32757263636428" r="2.415" fill="none" stroke="#0066cc" stroke-width="0.5"/>
    <circle cx="120.3801271736184" cy="55.776223678859125" r="2.415" fill="none" stroke="#0066cc" stroke-width="0.5"/>
    <circle cx="116.0903859307029" cy="71.21232616601823" r="2.415" fill="none" stroke="#0066cc" stroke-width="0.5"/>
    <circle cx="104.79709834638669" cy="49.3069668620205" r="2.415" fill="none" stroke="#0066cc" stroke-width="0.5"/>
    <circle cx="105.4095943502798" cy="55.551009623879494" r="2.415" fill="none" stroke="#0066cc" stroke-width="0.5"/>
    <circle cx="121.59202576953214" cy="66.49725008383997" r="2.415" fill="none" stroke="#0066cc" stroke-width="0.5"/>
    <circle cx="112.30364842639267" cy="80.41936096728794" r="2.415" fill="none" stroke="#0066cc" stroke-width="0.5"/>
    <circle cx="102.86884282761059" cy="62.302350502840696" r="2.415" fill="none" stroke="#0066cc" stroke-width="0.5"/>
    <circle cx="109.32903024836872" cy="30.90339988224075" r="2.415" fill="none" stroke="#0066cc" stroke-width="0.5"/>
    <circle cx="105.44439884699841" cy="69.93607607970576" r="2.415" fill="none" stroke="#0066cc" stroke-width="0.5"/>
    <circle cx="121.74087787825181" cy="38.16060205894162" r="2.415" fill="none" stroke="#0066cc" stroke-width="0.5"/>
    <circle cx="104.23192460143065" cy="76.40473176007832" r="2.415" fill="none" stroke="#0066cc" stroke-width="0.5"/>
    <circle cx="103.88254102394251" cy="34.00281853088522" r="2.415" fill="none" stroke="#0066cc" stroke-width="0.5"/>
    <circle cx="122.1852217148745" cy="75.39066992650895" r="2.415" fill="none" stroke="#0066cc" stroke-width="0.5"/>
    <circle cx="116.96522579147558" cy="28.389924055693783" r="2.415" fill="none" stroke="#0066cc" stroke-width="0.5"/>
    <circle cx="102.9639788900268" cy="24.95382393349051" r="2.415" fill="none" stroke="#0066cc" stroke-width="0.5"/>
    <circle cx="110.18722317963721" cy="21.07900174732363" r="2.415" fill="none" stroke="#0066cc" stroke-width="0.5"/>
    <circle cx="110.50348780952373" cy="49.745346033119304" r="2.415" fill="none" stroke="#0066cc" stroke-width="0.5"/>
    <circle cx="103.34989037119499" cy="66.793534857963" r="2.415" fill="none" stroke="#0066cc" stroke-width="0.5"/>
  </g>
</svg>