<svg xmlns="http://www.w3.org/2000/svg" viewBox="0 0 200 200" data-archetype="lam" data-weight="heavy">
  <polygon id="facing-notch" points="100,10 92,28 108,28" fill="currentColor" stroke="black" stroke-width="1.5" />
  <polygon points="26,74 70,60 70,106 26,100" fill="currentColor" stroke="black" stroke-width="1.5" />
  <polygon points="174,74 130,60 130,106 174,100" fill="currentColor" stroke="black" stroke-width="1.5" />
  <rect x="86" y="26" width="28" height="22" rx="4" fill="currentColor" stroke="black" stroke-width="1.5" />
  <rect x="70" y="50" width="60" height="58" rx="6" fill="currentColor" stroke="black" stroke-width="1.5" />
  <rect x="54" y="62" width="18" height="50" rx="4" fill="currentColor" stroke="black" stroke-width="1.5" />
  <rect x="128" y="62" width="18" height="50" rx="4" fill="currentColor" stroke="black" stroke-width="1.5" />
  <rect x="78" y="110" width="20" height="60" rx="4" fill="currentColor" stroke="black" stroke-width="1.5" />
  <rect x="102" y="110" width="20" height="60" rx="4" fill="currentColor" stroke="black" stroke-width="1.5" />
  <rect x="70" y="170" width="32" height="12" rx="2" fill="currentColor" stroke="black" stroke-width="1.5" />
  <rect x="98" y="170" width="32" height="12" rx="2" fill="currentColor" stroke="black" stroke-width="1.5" />
</svg>
