<svg xmlns="http://www.w3.org/2000/svg" viewBox="0 0 200 200" data-archetype="lam" data-weight="light">
  <polygon id="facing-notch" points="100,10 92,28 108,28" fill="currentColor" stroke="black" stroke-width="1.5" />
  <polygon points="40,70 82,60 82,96 40,90" fill="currentColor" stroke="black" stroke-width="1.5" />
  <polygon points="160,70 118,60 118,96 160,90" fill="currentColor" stroke="black" stroke-width="1.5" />
  <rect x="90" y="28" width="20" height="18" rx="3" fill="currentColor" stroke="black" stroke-width="1.5" />
  <rect x="82" y="48" width="36" height="52" rx="4" fill="currentColor" stroke="black" stroke-width="1.5" />
  <rect x="68" y="52" width="12" height="46" rx="3" fill="currentColor" stroke="black" stroke-width="1.5" />
  <rect x="120" y="52" width="12" height="46" rx="3" fill="currentColor" stroke="black" stroke-width="1.5" />
  <rect x="84" y="102" width="14" height="64" rx="3" fill="currentColor" stroke="black" stroke-width="1.5" />
  <rect x="102" y="102" width="14" height="64" rx="3" fill="currentColor" stroke="black" stroke-width="1.5" />
  <rect x="80" y="166" width="22" height="8" rx="2" fill="currentColor" stroke="black" stroke-width="1.5" />
  <rect x="98" y="166" width="22" height="8" rx="2" fill="currentColor" stroke="black" stroke-width="1.5" />
</svg>
