<svg xmlns="http://www.w3.org/2000/svg" viewBox="0 0 200 200" data-archetype="quad" data-weight="assault">
  <polygon id="facing-notch" points="100,10 92,28 108,28" fill="currentColor" stroke="black" stroke-width="1.5" />
  <polygon points="84,26 116,26 100,52" fill="currentColor" stroke="black" stroke-width="1.5" />
  <rect x="44" y="48" width="112" height="64" rx="10" fill="currentColor" stroke="black" stroke-width="1.5" />
  <rect x="40" y="62" width="14" height="44" rx="3" fill="currentColor" stroke="black" stroke-width="1.5" />
  <rect x="146" y="62" width="14" height="44" rx="3" fill="currentColor" stroke="black" stroke-width="1.5" />
  <rect x="34" y="102" width="26" height="60" rx="4" fill="currentColor" stroke="black" stroke-width="1.5" />
  <rect x="140" y="102" width="26" height="60" rx="4" fill="currentColor" stroke="black" stroke-width="1.5" />
  <rect x="62" y="108" width="26" height="66" rx="4" fill="currentColor" stroke="black" stroke-width="1.5" />
  <rect x="112" y="108" width="26" height="66" rx="4" fill="currentColor" stroke="black" stroke-width="1.5" />
  <rect x="28" y="160" width="38" height="14" rx="2" fill="currentColor" stroke="black" stroke-width="1.5" />
  <rect x="134" y="160" width="38" height="14" rx="2" fill="currentColor" stroke="black" stroke-width="1.5" />
  <rect x="56" y="172" width="38" height="14" rx="2" fill="currentColor" stroke="black" stroke-width="1.5" />
  <rect x="106" y="172" width="38" height="14" rx="2" fill="currentColor" stroke="black" stroke-width="1.5" />
</svg>
