<!--
  Rough — irregular ground with scattered dots and small pebbles.

  Shape signature: dotted pattern is the rough marker. Homemade, original
  art.
-->
<svg xmlns="http://www.w3.org/2000/svg" viewBox="0 0 200 200" width="200" height="200" aria-label="Rough terrain">
  <defs>
    <clipPath id="rough-hex-clip">
      <polygon points="200,100 150,186.6 50,186.6 0,100 50,13.4 150,13.4" />
    </clipPath>
  </defs>
  <g clip-path="url(#rough-hex-clip)" data-shape="dotted-pattern">
    <rect x="0" y="0" width="200" height="200" fill="#cdbfa6" />
    <g fill="#6f5a3f">
      <circle cx="30" cy="50" r="3" />
      <circle cx="60" cy="40" r="2" />
      <circle cx="90" cy="60" r="4" />
      <circle cx="130" cy="50" r="2.5" />
      <circle cx="170" cy="45" r="3" />
      <circle cx="40" cy="90" r="2" />
      <circle cx="80" cy="95" r="3" />
      <circle cx="110" cy="100" r="2.5" />
      <circle cx="150" cy="90" r="3.5" />
      <circle cx="180" cy="105" r="2" />
      <circle cx="25" cy="130" r="3" />
      <circle cx="65" cy="140" r="2" />
      <circle cx="100" cy="135" r="3.5" />
      <circle cx="140" cy="145" r="2.5" />
      <circle cx="175" cy="140" r="3" />
      <circle cx="35" cy="170" r="2.5" />
      <circle cx="75" cy="175" r="3" />
      <circle cx="115" cy="170" r="2" />
      <circle cx="155" cy="175" r="3.5" />
    </g>
    <g fill="#a68d6f">
      <polygon points="50,70 56,75 52,80 46,75" />
      <polygon points="120,80 126,85 122,92 116,85" />
      <polygon points="70,120 76,125 72,130 66,125" />
      <polygon points="160,120 166,125 162,132 156,125" />
      <polygon points="95,150 101,155 97,160 91,155" />
    </g>
  </g>
</svg>
