<!--
  Rubble — broken debris, chunks and slabs.

  Shape signature: angular polygon chunks, denser than rough and
  containing straight-edged fragments (broken slabs). Homemade, original
  art.
-->
<svg xmlns="http://www.w3.org/2000/svg" viewBox="0 0 200 200" width="200" height="200" aria-label="Rubble terrain">
  <defs>
    <clipPath id="rubble-hex-clip">
      <polygon points="200,100 150,186.6 50,186.6 0,100 50,13.4 150,13.4" />
    </clipPath>
  </defs>
  <g clip-path="url(#rubble-hex-clip)" data-shape="debris-chunks">
    <rect x="0" y="0" width="200" height="200" fill="#9c938a" />
    <g fill="#5a524a" stroke="#2d2720" stroke-width="1.2">
      <polygon points="30,50 50,45 55,65 40,75 25,60" />
      <polygon points="80,40 100,38 105,55 90,60 75,50" />
      <polygon points="140,55 160,50 165,70 145,80" />
      <polygon points="50,110 70,108 75,130 55,135 45,120" />
      <polygon points="120,120 140,115 145,140 125,145 115,130" />
      <polygon points="160,130 180,130 175,155 155,155 150,140" />
      <polygon points="30,155 50,150 55,175 35,180" />
      <polygon points="90,165 110,162 115,182 95,185" />
    </g>
    <g fill="#7a7066" stroke="#3a332c" stroke-width="1">
      <rect x="40" y="90" width="30" height="8" transform="rotate(15 55 94)" />
      <rect x="105" y="85" width="25" height="6" transform="rotate(-10 117 88)" />
      <rect x="130" y="155" width="20" height="5" transform="rotate(25 140 158)" />
      <rect x="60" y="135" width="18" height="4" transform="rotate(-20 69 137)" />
    </g>
  </g>
</svg>
